<mxfile host="app.diagrams.net" modified="2022-03-24T18:49:47.581Z" agent="5.0 (Windows NT 10.0; Win64; x64) AppleWebKit/537.36 (KHTML, like Gecko) Chrome/99.0.4844.82 Safari/537.36" etag="jJcxNCTOmz9bJe80jV6T" version="17.2.1" type="github" pages="2">
  <diagram id="mxWxqsGXy1Et01dOaM7q" name="Page-1">
    <mxGraphModel dx="782" dy="436" grid="1" gridSize="10" guides="1" tooltips="1" connect="1" arrows="1" fold="1" page="1" pageScale="1" pageWidth="1100" pageHeight="850" math="0" shadow="0">
      <root>
        <mxCell id="0" />
        <mxCell id="1" parent="0" />
        <mxCell id="if6jiqTCFQZbZw5ODPHP-2" value="" style="strokeWidth=1;shadow=0;dashed=0;align=center;html=1;shape=mxgraph.mockup.forms.rrect;rSize=0;strokeColor=#999999;fillColor=#ffffff;" vertex="1" parent="1">
          <mxGeometry x="460" y="190" width="200" height="300" as="geometry" />
        </mxCell>
        <mxCell id="if6jiqTCFQZbZw5ODPHP-3" value="Sign In" style="strokeWidth=1;shadow=0;dashed=0;align=center;html=1;shape=mxgraph.mockup.forms.anchor;fontSize=12;fontColor=#666666;align=left;resizeWidth=1;spacingLeft=0;" vertex="1" parent="if6jiqTCFQZbZw5ODPHP-2">
          <mxGeometry width="100" height="20" relative="1" as="geometry">
            <mxPoint x="10" y="10" as="offset" />
          </mxGeometry>
        </mxCell>
        <mxCell id="if6jiqTCFQZbZw5ODPHP-4" value="" style="shape=line;strokeColor=#808080;strokeWidth=2;html=1;resizeWidth=1;" vertex="1" parent="if6jiqTCFQZbZw5ODPHP-2">
          <mxGeometry width="180" height="10" relative="1" as="geometry">
            <mxPoint x="10" y="30" as="offset" />
          </mxGeometry>
        </mxCell>
        <mxCell id="if6jiqTCFQZbZw5ODPHP-5" value="User Name:" style="strokeWidth=1;shadow=0;dashed=0;align=center;html=1;shape=mxgraph.mockup.forms.anchor;fontSize=12;fontColor=#666666;align=left;resizeWidth=1;spacingLeft=0;" vertex="1" parent="if6jiqTCFQZbZw5ODPHP-2">
          <mxGeometry width="100" height="20" relative="1" as="geometry">
            <mxPoint x="10" y="40" as="offset" />
          </mxGeometry>
        </mxCell>
        <mxCell id="if6jiqTCFQZbZw5ODPHP-6" value="" style="strokeWidth=1;shadow=0;dashed=0;align=center;html=1;shape=mxgraph.mockup.forms.rrect;rSize=0;strokeColor=#999999;fontColor=#666666;align=left;spacingLeft=5;resizeWidth=1;" vertex="1" parent="if6jiqTCFQZbZw5ODPHP-2">
          <mxGeometry width="150" height="25" relative="1" as="geometry">
            <mxPoint x="10" y="60" as="offset" />
          </mxGeometry>
        </mxCell>
        <mxCell id="if6jiqTCFQZbZw5ODPHP-7" value="Password:" style="strokeWidth=1;shadow=0;dashed=0;align=center;html=1;shape=mxgraph.mockup.forms.anchor;fontSize=12;fontColor=#666666;align=left;resizeWidth=1;spacingLeft=0;" vertex="1" parent="if6jiqTCFQZbZw5ODPHP-2">
          <mxGeometry width="100" height="20" relative="1" as="geometry">
            <mxPoint x="10" y="100" as="offset" />
          </mxGeometry>
        </mxCell>
        <mxCell id="if6jiqTCFQZbZw5ODPHP-8" value="" style="strokeWidth=1;shadow=0;dashed=0;align=center;html=1;shape=mxgraph.mockup.forms.rrect;rSize=0;strokeColor=#999999;fontColor=#666666;align=left;spacingLeft=5;resizeWidth=1;" vertex="1" parent="if6jiqTCFQZbZw5ODPHP-2">
          <mxGeometry width="150" height="25" relative="1" as="geometry">
            <mxPoint x="10" y="130" as="offset" />
          </mxGeometry>
        </mxCell>
        <mxCell id="if6jiqTCFQZbZw5ODPHP-9" value="SIGN IN" style="strokeWidth=1;shadow=0;dashed=0;align=center;html=1;shape=mxgraph.mockup.forms.rrect;rSize=5;strokeColor=none;fontColor=#ffffff;fillColor=#33FF33;fontSize=16;fontStyle=1;" vertex="1" parent="if6jiqTCFQZbZw5ODPHP-2">
          <mxGeometry y="1" width="80" height="30" relative="1" as="geometry">
            <mxPoint x="50" y="-130" as="offset" />
          </mxGeometry>
        </mxCell>
        <mxCell id="if6jiqTCFQZbZw5ODPHP-11" value="" style="shape=line;strokeColor=#808080;strokeWidth=4;html=1;resizeWidth=1;" vertex="1" parent="if6jiqTCFQZbZw5ODPHP-2">
          <mxGeometry y="1" width="180" height="10" relative="1" as="geometry">
            <mxPoint x="10" y="-90" as="offset" />
          </mxGeometry>
        </mxCell>
      </root>
    </mxGraphModel>
  </diagram>
  <diagram id="_BEUWTGxGsCgOJh7kT9s" name="Page-2">
    <mxGraphModel dx="1564" dy="872" grid="1" gridSize="10" guides="1" tooltips="1" connect="1" arrows="1" fold="1" page="1" pageScale="1" pageWidth="850" pageHeight="1100" math="0" shadow="0">
      <root>
        <mxCell id="0" />
        <mxCell id="1" parent="0" />
        <mxCell id="6cGhwSvboFRDvmUR015P-1" value="" style="rounded=0;whiteSpace=wrap;html=1;strokeColor=#808080;strokeWidth=4;fillColor=#FFFFFF;" vertex="1" parent="1">
          <mxGeometry x="6" y="8" width="838" height="1084" as="geometry" />
        </mxCell>
        <mxCell id="6cGhwSvboFRDvmUR015P-7" value="&lt;font style=&quot;font-size: 30px&quot;&gt;Expense Report Home Page&lt;/font&gt;" style="rounded=0;whiteSpace=wrap;html=1;strokeColor=#808080;strokeWidth=11;fillColor=#FFFFFF;fontFamily=Verdana;fontSize=22;" vertex="1" parent="1">
          <mxGeometry x="230" y="50" width="500" height="60" as="geometry" />
        </mxCell>
        <mxCell id="6cGhwSvboFRDvmUR015P-16" value="" style="strokeWidth=1;shadow=0;dashed=0;align=center;html=1;shape=mxgraph.mockup.containers.marginRect2;rectMarginTop=32;strokeColor=#666666;gradientColor=none;fontFamily=Verdana;fontSize=30;" vertex="1" parent="1">
          <mxGeometry x="180" y="205" width="585" height="690" as="geometry" />
        </mxCell>
        <mxCell id="6cGhwSvboFRDvmUR015P-17" value="Tab 1" style="strokeColor=inherit;fillColor=inherit;gradientColor=inherit;strokeWidth=1;shadow=0;dashed=0;align=center;html=1;shape=mxgraph.mockup.containers.rrect;rSize=0;fontSize=17;fontColor=#666666;gradientColor=none;fontFamily=Verdana;" vertex="1" parent="6cGhwSvboFRDvmUR015P-16">
          <mxGeometry width="60" height="25" relative="1" as="geometry">
            <mxPoint x="10" as="offset" />
          </mxGeometry>
        </mxCell>
        <mxCell id="6cGhwSvboFRDvmUR015P-18" value="&lt;font style=&quot;font-size: 19px&quot;&gt;Tab 2&lt;/font&gt;" style="strokeWidth=1;shadow=0;dashed=0;align=center;html=1;shape=mxgraph.mockup.containers.rrect;rSize=0;fontSize=17;fontColor=#ffffff;strokeColor=#008cff;fillColor=#008cff;fontFamily=Verdana;" vertex="1" parent="6cGhwSvboFRDvmUR015P-16">
          <mxGeometry width="60" height="25" relative="1" as="geometry">
            <mxPoint x="75" as="offset" />
          </mxGeometry>
        </mxCell>
        <mxCell id="6cGhwSvboFRDvmUR015P-21" style="edgeStyle=orthogonalEdgeStyle;rounded=0;orthogonalLoop=1;jettySize=auto;html=1;fontFamily=Verdana;fontSize=30;" edge="1" parent="6cGhwSvboFRDvmUR015P-16" source="6cGhwSvboFRDvmUR015P-20" target="6cGhwSvboFRDvmUR015P-16">
          <mxGeometry relative="1" as="geometry" />
        </mxCell>
        <mxCell id="6cGhwSvboFRDvmUR015P-19" value="Tab 3" style="strokeColor=inherit;fillColor=inherit;gradientColor=inherit;strokeWidth=1;shadow=0;dashed=0;align=center;html=1;shape=mxgraph.mockup.containers.rrect;rSize=0;fontSize=17;fontColor=#666666;gradientColor=none;fontFamily=Verdana;" vertex="1" parent="6cGhwSvboFRDvmUR015P-16">
          <mxGeometry width="60" height="25" relative="1" as="geometry">
            <mxPoint x="140" as="offset" />
          </mxGeometry>
        </mxCell>
        <mxCell id="6cGhwSvboFRDvmUR015P-20" value="" style="strokeWidth=1;shadow=0;dashed=0;align=center;html=1;shape=mxgraph.mockup.containers.topButton;rSize=5;strokeColor=#008cff;fillColor=#008cff;gradientColor=none;resizeWidth=1;movable=0;deletable=1;fontFamily=Verdana;fontSize=30;" vertex="1" parent="6cGhwSvboFRDvmUR015P-16">
          <mxGeometry width="585" height="7" relative="1" as="geometry">
            <mxPoint y="25" as="offset" />
          </mxGeometry>
        </mxCell>
        <mxCell id="6cGhwSvboFRDvmUR015P-22" value="Create Expense Reimbursment" style="strokeWidth=1;shadow=0;dashed=0;align=center;html=1;shape=mxgraph.mockup.buttons.button;strokeColor=#666666;fontColor=#ffffff;mainText=;buttonStyle=round;fontSize=17;fontStyle=1;fillColor=#808080;whiteSpace=wrap;fontFamily=Verdana;" vertex="1" parent="1">
          <mxGeometry x="20" y="270" width="140" height="60" as="geometry" />
        </mxCell>
        <mxCell id="6cGhwSvboFRDvmUR015P-23" value="Button Text" style="strokeWidth=1;shadow=0;dashed=0;align=center;html=1;shape=mxgraph.mockup.buttons.button;strokeColor=#666666;fontColor=#ffffff;mainText=;buttonStyle=round;fontSize=17;fontStyle=1;fillColor=#808080;whiteSpace=wrap;fontFamily=Verdana;" vertex="1" parent="1">
          <mxGeometry x="20" y="370" width="130" height="50" as="geometry" />
        </mxCell>
        <mxCell id="6cGhwSvboFRDvmUR015P-24" value="Button Text" style="strokeWidth=1;shadow=0;dashed=0;align=center;html=1;shape=mxgraph.mockup.buttons.button;strokeColor=#666666;fontColor=#ffffff;mainText=;buttonStyle=round;fontSize=17;fontStyle=1;fillColor=#808080;whiteSpace=wrap;fontFamily=Verdana;" vertex="1" parent="1">
          <mxGeometry x="20" y="470" width="130" height="50" as="geometry" />
        </mxCell>
        <mxCell id="6cGhwSvboFRDvmUR015P-25" value="" style="verticalLabelPosition=bottom;shadow=0;dashed=0;align=center;html=1;verticalAlign=top;strokeWidth=1;shape=mxgraph.mockup.containers.userFemale;strokeColor=#666666;strokeColor2=#008cff;fontFamily=Verdana;fontSize=10;fillColor=#808080;" vertex="1" parent="1">
          <mxGeometry x="40" y="40" width="100" height="100" as="geometry" />
        </mxCell>
        <mxCell id="6cGhwSvboFRDvmUR015P-26" value="Log out" style="strokeWidth=1;shadow=0;dashed=0;align=center;html=1;shape=mxgraph.mockup.buttons.button;strokeColor=#666666;fontColor=#ffffff;mainText=;buttonStyle=round;fontSize=17;fontStyle=1;fillColor=#008cff;whiteSpace=wrap;fontFamily=Verdana;" vertex="1" parent="1">
          <mxGeometry x="40" y="155" width="100" height="35" as="geometry" />
        </mxCell>
      </root>
    </mxGraphModel>
  </diagram>
</mxfile>
